REM DIRINDEX 1\4,1\2\5,1\2\6,1\3\7,1\3\8
REM DIRNAME folder01,folder02,folder03,folder04,folder05,folder06,folder07,folder08
TITLE ""
FILE "035_Day18_Check2_Phrases.mp3" MP3
  TRACK 01 AUDIO
    TITLE "0:"
    INDEX 01 00:00:00
  TRACK 02 AUDIO
    TITLE "4:cjc124_1125"
    INDEX 01 00:00:31
  TRACK 03 AUDIO
    TITLE "0:"
    INDEX 01 00:01:44
  TRACK 04 AUDIO
    TITLE "5:cjc124_1126"
    INDEX 01 00:02:06
  TRACK 05 AUDIO
    TITLE "0:"
    INDEX 01 00:03:74
  TRACK 06 AUDIO
    TITLE "6:cjc124_1127"
    INDEX 01 00:04:15
  TRACK 07 AUDIO
    TITLE "0:"
    INDEX 01 00:05:48
  TRACK 08 AUDIO
    TITLE "5:cjc124_1128"
    INDEX 01 00:06:10
  TRACK 09 AUDIO
    TITLE "0:"
    INDEX 01 00:07:66
  TRACK 10 AUDIO
    TITLE "6:cjc124_1129"
    INDEX 01 00:08:09
  TRACK 11 AUDIO
    TITLE "0:"
    INDEX 01 00:09:12
  TRACK 12 AUDIO
    TITLE "5:cjc124_1130"
    INDEX 01 00:09:55
  TRACK 13 AUDIO
    TITLE "0:"
    INDEX 01 00:12:09
  TRACK 14 AUDIO
    TITLE "6:cjc124_1131"
    INDEX 01 00:12:26
  TRACK 15 AUDIO
    TITLE "0:"
    INDEX 01 00:13:71
  TRACK 16 AUDIO
    TITLE "5:cjc124_1132"
    INDEX 01 00:14:37
  TRACK 17 AUDIO
    TITLE "0:"
    INDEX 01 00:16:63
  TRACK 18 AUDIO
    TITLE "6:cjc124_1133"
    INDEX 01 00:17:06
  TRACK 19 AUDIO
    TITLE "0:"
    INDEX 01 00:18:68
  TRACK 20 AUDIO
    TITLE "5:cjc124_1134"
    INDEX 01 00:19:32
  TRACK 21 AUDIO
    TITLE "0:"
    INDEX 01 00:21:06
  TRACK 22 AUDIO
    TITLE "6:cjc124_1135"
    INDEX 01 00:21:27
  TRACK 23 AUDIO
    TITLE "0:"
    INDEX 01 00:22:66
  TRACK 24 AUDIO
    TITLE "5:cjc124_1136"
    INDEX 01 00:23:36
  TRACK 25 AUDIO
    TITLE "0:"
    INDEX 01 00:24:57
  TRACK 26 AUDIO
    TITLE "6:cjc124_1137"
    INDEX 01 00:25:01
  TRACK 27 AUDIO
    TITLE "0:"
    INDEX 01 00:26:30
  TRACK 28 AUDIO
    TITLE "5:cjc124_1138"
    INDEX 01 00:26:67
  TRACK 29 AUDIO
    TITLE "0:"
    INDEX 01 00:29:29
  TRACK 30 AUDIO
    TITLE "6:cjc124_1139"
    INDEX 01 00:29:46
  TRACK 31 AUDIO
    TITLE "0:"
    INDEX 01 00:31:39
  TRACK 32 AUDIO
    TITLE "5:cjc124_1140"
    INDEX 01 00:32:01
  TRACK 33 AUDIO
    TITLE "0:"
    INDEX 01 00:34:20
  TRACK 34 AUDIO
    TITLE "6:cjc124_1141"
    INDEX 01 00:34:38
  TRACK 35 AUDIO
    TITLE "0:"
    INDEX 01 00:35:74
  TRACK 36 AUDIO
    TITLE "5:cjc124_1142"
    INDEX 01 00:36:36
  TRACK 37 AUDIO
    TITLE "0:"
    INDEX 01 00:38:24
  TRACK 38 AUDIO
    TITLE "6:cjc124_1143"
    INDEX 01 00:38:43
  TRACK 39 AUDIO
    TITLE "0:"
    INDEX 01 00:41:06
  TRACK 40 AUDIO
    TITLE "5:cjc124_1144"
    INDEX 01 00:41:44
  TRACK 41 AUDIO
    TITLE "0:"
    INDEX 01 00:43:05
  TRACK 42 AUDIO
    TITLE "6:cjc124_1145"
    INDEX 01 00:43:33
  TRACK 43 AUDIO
    TITLE "0:"
    INDEX 01 00:45:02
  TRACK 44 AUDIO
    TITLE "5:cjc124_1146"
    INDEX 01 00:45:41
  TRACK 45 AUDIO
    TITLE "0:"
    INDEX 01 00:47:50
  TRACK 46 AUDIO
    TITLE "6:cjc124_1147"
    INDEX 01 00:47:66
  TRACK 47 AUDIO
    TITLE "0:"
    INDEX 01 00:49:57
  TRACK 48 AUDIO
    TITLE "5:cjc124_1148"
    INDEX 01 00:50:21
  TRACK 49 AUDIO
    TITLE "0:"
    INDEX 01 00:52:36
  TRACK 50 AUDIO
    TITLE "6:cjc124_1149"
    INDEX 01 00:52:55
  TRACK 51 AUDIO
    TITLE "0:"
    INDEX 01 00:54:34
  TRACK 52 AUDIO
    TITLE "5:cjc124_1150"
    INDEX 01 00:54:72
  TRACK 53 AUDIO
    TITLE "0:"
    INDEX 01 00:56:72
  TRACK 54 AUDIO
    TITLE "6:cjc124_1151"
    INDEX 01 00:57:13
  TRACK 55 AUDIO
    TITLE "0:"
    INDEX 01 00:58:42
  TRACK 56 AUDIO
    TITLE "5:cjc124_1152"
    INDEX 01 00:59:06
  TRACK 57 AUDIO
    TITLE "0:"
    INDEX 01 01:01:48
  TRACK 58 AUDIO
    TITLE "6:cjc124_1153"
    INDEX 01 01:02:03
  TRACK 59 AUDIO
    TITLE "0:"
    INDEX 01 01:04:15
  TRACK 60 AUDIO
    TITLE "5:cjc124_1154"
    INDEX 01 01:04:56
  TRACK 61 AUDIO
    TITLE "0:"
    INDEX 01 01:06:30
  TRACK 62 AUDIO
    TITLE "6:cjc124_1155"
    INDEX 01 01:06:45
  TRACK 63 AUDIO
    TITLE "0:"
    INDEX 01 01:08:05
  TRACK 64 AUDIO
    TITLE "5:cjc124_1156"
    INDEX 01 01:08:46
  TRACK 65 AUDIO
    TITLE "0:"
    INDEX 01 01:10:24
  TRACK 66 AUDIO
    TITLE "6:cjc124_1157"
    INDEX 01 01:10:51
  TRACK 67 AUDIO
    TITLE "0:"
    INDEX 01 01:12:32
